{
    "asset" : {
        "generator" : "Khronos glTF Blender I/O v1.5.17",
        "version" : "2.0"
    },
    "scene" : 0,
    "scenes" : [
        {
            "name" : "Scene",
            "nodes" : [
                10
            ]
        }
    ],
    "nodes" : [
        {
            "mesh" : 0,
            "name" : "Cube",
            "rotation" : [
                -2.1859387189238078e-08,
                6.747551850594391e-08,
                -0.9998946785926819,
                0.014514853246510029
            ],
            "scale" : [
                0.5261396765708923,
                0.9572163224220276,
                0.9572162628173828
            ],
            "translation" : [
                0.05464673042297363,
                1.267259064860475,
                1.3207615268129302e-07
            ]
        },
        {
            "children" : [
                0
            ],
            "name" : "Bone.006",
            "rotation" : [
                8.005787144327314e-09,
                -1.4280132631938613e-08,
                0.2986099421977997,
                0.9543752670288086
            ],
            "translation" : [
                1.6192707619211433e-07,
                3.3899333477020264,
                5.73349486919679e-14
            ]
        },
        {
            "children" : [
                1
            ],
            "name" : "Bone.002",
            "rotation" : [
                -4.0345131679941915e-09,
                -1.0026016461495146e-08,
                0.8041009306907654,
                0.5944928526878357
            ],
            "scale" : [
                0.9999999403953552,
                1,
                1
            ],
            "translation" : [
                -1.8626518105691048e-09,
                2.041114568710327,
                -1.3322676295501878e-14
            ]
        },
        {
            "name" : "Bone.004",
            "rotation" : [
                -5.164449490280276e-08,
                -1.5654359231120907e-07,
                -0.2607631981372833,
                0.9654027819633484
            ],
            "scale" : [
                0.9999998807907104,
                1,
                1
            ],
            "translation" : [
                1.7798346618747019e-07,
                3.063453435897827,
                1.4108862461583577e-13
            ]
        },
        {
            "children" : [
                3
            ],
            "name" : "Bone.003",
            "rotation" : [
                -5.431811889167193e-09,
                -1.8253157207936965e-08,
                -0.7751178741455078,
                0.6318168044090271
            ],
            "scale" : [
                0.9999999403953552,
                0.9999999403953552,
                1
            ],
            "translation" : [
                -1.0831211483264269e-07,
                2.041114330291748,
                1.7775643695698562e-14
            ]
        },
        {
            "mesh" : 1,
            "name" : "Icosphere",
            "rotation" : [
                -6.728547674583751e-08,
                -1.1612264039229103e-08,
                0.00999850407242775,
                0.999950110912323
            ],
            "scale" : [
                1.5398486852645874,
                1.5398485660552979,
                1.5398486852645874
            ],
            "translation" : [
                -0.013464896008372307,
                1.081467981205663,
                1.340641659908215e-07
            ]
        },
        {
            "children" : [
                2,
                4,
                5
            ],
            "name" : "Bone.001",
            "rotation" : [
                6.728547674583751e-08,
                1.1612263151050684e-08,
                -0.00999850407242775,
                0.999950110912323
            ],
            "scale" : [
                1,
                1.0000001192092896,
                1
            ],
            "translation" : [
                0,
                1,
                0
            ]
        },
        {
            "children" : [
                6
            ],
            "name" : "Bone"
        },
        {
            "name" : "Bone.007",
            "rotation" : [
                -0.6612873673439026,
                0.25039780139923096,
                0.6612873077392578,
                0.2503978908061981
            ],
            "scale" : [
                1,
                0.9999999403953552,
                0.9999999403953552
            ]
        },
        {
            "name" : "Bone.008",
            "rotation" : [
                -0.6768437623977661,
                -0.20465214550495148,
                -0.6768437623977661,
                0.20465223491191864
            ]
        },
        {
            "children" : [
                7,
                8,
                9
            ],
            "name" : "Armature"
        }
    ],
    "meshes" : [
        {
            "name" : "Cube.002",
            "primitives" : [
                {
                    "attributes" : {
                        "POSITION" : 0,
                        "NORMAL" : 1,
                        "TEXCOORD_0" : 2
                    },
                    "indices" : 3
                }
            ]
        },
        {
            "name" : "Icosphere",
            "primitives" : [
                {
                    "attributes" : {
                        "POSITION" : 4,
                        "NORMAL" : 5,
                        "TEXCOORD_0" : 6
                    },
                    "indices" : 7
                }
            ]
        }
    ],
    "accessors" : [
        {
            "bufferView" : 0,
            "componentType" : 5126,
            "count" : 24,
            "max" : [
                1,
                1,
                1
            ],
            "min" : [
                -1,
                -1,
                -1
            ],
            "type" : "VEC3"
        },
        {
            "bufferView" : 1,
            "componentType" : 5126,
            "count" : 24,
            "type" : "VEC3"
        },
        {
            "bufferView" : 2,
            "componentType" : 5126,
            "count" : 24,
            "type" : "VEC2"
        },
        {
            "bufferView" : 3,
            "componentType" : 5123,
            "count" : 36,
            "type" : "SCALAR"
        },
        {
            "bufferView" : 4,
            "componentType" : 5126,
            "count" : 240,
            "max" : [
                0.9510578513145447,
                1,
                0.9999999403953552
            ],
            "min" : [
                -0.9510578513145447,
                -1,
                -0.9999999403953552
            ],
            "type" : "VEC3"
        },
        {
            "bufferView" : 5,
            "componentType" : 5126,
            "count" : 240,
            "type" : "VEC3"
        },
        {
            "bufferView" : 6,
            "componentType" : 5126,
            "count" : 240,
            "type" : "VEC2"
        },
        {
            "bufferView" : 7,
            "componentType" : 5123,
            "count" : 240,
            "type" : "SCALAR"
        }
    ],
    "bufferViews" : [
        {
            "buffer" : 0,
            "byteLength" : 288,
            "byteOffset" : 0
        },
        {
            "buffer" : 0,
            "byteLength" : 288,
            "byteOffset" : 288
        },
        {
            "buffer" : 0,
            "byteLength" : 192,
            "byteOffset" : 576
        },
        {
            "buffer" : 0,
            "byteLength" : 72,
            "byteOffset" : 768
        },
        {
            "buffer" : 0,
            "byteLength" : 2880,
            "byteOffset" : 840
        },
        {
            "buffer" : 0,
            "byteLength" : 2880,
            "byteOffset" : 3720
        },
        {
            "buffer" : 0,
            "byteLength" : 1920,
            "byteOffset" : 6600
        },
        {
            "buffer" : 0,
            "byteLength" : 480,
            "byteOffset" : 8520
        }
    ],
    "buffers" : [
        {
            "byteLength" : 9000,
            "uri" : "untitled.bin"
        }
    ]
}
